<?xml version="1.0" encoding="UTF-8"?>
<svg xmlns="http://www.w3.org/2000/svg" id="Layer_1" data-name="Layer 1" viewBox="0 0 24 24">
  <path d="M17,5h4v1h-4v-1Zm0,4h4v-1h-4v1Zm0,3h4v-1h-4v1Zm0,3h4v-1h-4v1Zm-2-5c0,3.309-2.691,6-6,6s-6-2.691-6-6,2.691-6,6-6,6,2.691,6,6Zm-6,5c1.198,0,2.284-.441,3.146-1.146l-3.646-3.646V5.051c-2.52,.255-4.5,2.364-4.5,4.949,0,2.757,2.243,5,5,5Zm5-5c0-2.586-1.98-4.694-4.5-4.949v4.742l3.354,3.354c.705-.862,1.146-1.948,1.146-3.146Zm-1.5,9v3h5.5v1H6v-1h5.5v-3H0V3.5C0,2.122,1.121,1,2.5,1H21.5c1.379,0,2.5,1.122,2.5,2.5v15.5H12.5Zm-11.5-1H23V3.5c0-.827-.673-1.5-1.5-1.5H2.5c-.827,0-1.5,.673-1.5,1.5v14.5Z"/>
</svg>
